<?xml version="1.0" encoding="UTF-8" standalone="no"?><!DOCTYPE svg PUBLIC "-//W3C//DTD SVG 1.1//EN" "http://www.w3.org/Graphics/SVG/1.1/DTD/svg11.dtd"><svg width="100%" height="100%" viewBox="0 0 276 157" version="1.1" xmlns="http://www.w3.org/2000/svg" xmlns:xlink="http://www.w3.org/1999/xlink" xml:space="preserve" xmlns:serif="http://www.serif.com/" style="fill-rule:evenodd;clip-rule:evenodd;stroke-linecap:round;stroke-linejoin:round;stroke-miterlimit:1.5;"><text x="42.453px" y="150.724px" style="font-family:'PTSans-Regular', 'PT Sans', sans-serif;font-size:10.125px;fill:#a3a3a3;">12</text><text x="13.75px" y="117.969px" style="font-family:'PTSans-Regular', 'PT Sans', sans-serif;font-size:10.125px;fill:#a3a3a3;">1</text><path d="M28.626,0.3l0,151.119" style="fill:none;stroke:#d5d5d5;stroke-width:0.6px;"/><path d="M9.761,132.308l265.826,0" style="fill:none;stroke:#d5d5d5;stroke-width:0.6px;"/><g><path d="M28.626,132.308c4.43,0 131.31,-19.964 170.891,-114.992" style="fill:none;stroke:#ee6c4d;stroke-width:0.9px;"/><g><path d="M24.089,113.124l9.073,0" style="fill:none;stroke:#d5d5d5;stroke-width:0.9px;"/><path d="M24.089,94.938l9.073,0" style="fill:none;stroke:#d5d5d5;stroke-width:0.9px;"/><path d="M24.089,76.752l9.073,0" style="fill:none;stroke:#d5d5d5;stroke-width:0.9px;"/><path d="M24.089,58.566l9.073,0" style="fill:none;stroke:#d5d5d5;stroke-width:0.9px;"/><path d="M24.089,40.381l9.073,0" style="fill:none;stroke:#d5d5d5;stroke-width:0.9px;"/><path d="M24.089,22.195l9.073,0" style="fill:none;stroke:#d5d5d5;stroke-width:0.9px;"/></g><g><path d="M156.984,127.772l0,9.073" style="fill:none;stroke:#d5d5d5;stroke-width:0.9px;"/><path d="M175.17,127.772l0,9.073" style="fill:none;stroke:#d5d5d5;stroke-width:0.9px;"/><path d="M193.356,127.772l0,9.073" style="fill:none;stroke:#d5d5d5;stroke-width:0.9px;"/><path d="M47.869,127.772l0,9.073" style="fill:none;stroke:#d5d5d5;stroke-width:0.9px;"/><path d="M66.055,127.772l0,9.073" style="fill:none;stroke:#d5d5d5;stroke-width:0.9px;"/><path d="M84.241,127.772l0,9.073" style="fill:none;stroke:#d5d5d5;stroke-width:0.9px;"/><path d="M102.427,127.772l0,9.073" style="fill:none;stroke:#d5d5d5;stroke-width:0.9px;"/><path d="M120.613,127.772l0,9.073" style="fill:none;stroke:#d5d5d5;stroke-width:0.9px;"/><path d="M138.798,127.772l0,9.073" style="fill:none;stroke:#d5d5d5;stroke-width:0.9px;"/></g></g><text x="170.939px" y="153.91px" style="font-family:'PTSans-Regular', 'PT Sans', sans-serif;font-size:10.125px;fill:#a3a3a3;">c<tspan x="175.344px 179.869px " y="153.91px 153.91px ">za</tspan>s (dni)</text><text x="-0.78px" y="9.936px" style="font-family:'PTSans-Regular', 'PT Sans', sans-serif;font-size:10.125px;fill:#a3a3a3;">hP<tspan x="10.064px " y="9.936px ">a</tspan></text></svg>