<?xml version="1.0" encoding="UTF-8" standalone="no"?><!DOCTYPE svg PUBLIC "-//W3C//DTD SVG 1.1//EN" "http://www.w3.org/Graphics/SVG/1.1/DTD/svg11.dtd"><svg width="100%" height="100%" viewBox="0 0 276 200" version="1.1" xmlns="http://www.w3.org/2000/svg" xmlns:xlink="http://www.w3.org/1999/xlink" xml:space="preserve" xmlns:serif="http://www.serif.com/" style="fill-rule:evenodd;clip-rule:evenodd;stroke-linecap:round;stroke-linejoin:round;stroke-miterlimit:1.5;"><g><text x="42.453px" y="194.1px" style="font-family:'PTSans-Regular', 'PT Sans', sans-serif;font-size:10.125px;fill:#a3a3a3;">12</text><text x="13.75px" y="161.345px" style="font-family:'PTSans-Regular', 'PT Sans', sans-serif;font-size:10.125px;fill:#a3a3a3;">1</text><path d="M28.626,43.676l0,151.119" style="fill:none;stroke:#d5d5d5;stroke-width:1px;"/><path d="M9.761,175.684l265.826,0" style="fill:none;stroke:#d5d5d5;stroke-width:1px;"/><g><path d="M28.626,175.684c4.43,0 131.31,-19.964 170.891,-114.992" style="fill:none;stroke:#ee6c4d;stroke-width:1px;"/><g><path d="M24.089,156.5l9.073,0" style="fill:none;stroke:#d5d5d5;stroke-width:1px;"/><path d="M24.089,138.314l9.073,0" style="fill:none;stroke:#d5d5d5;stroke-width:1px;"/><path d="M24.089,120.128l9.073,0" style="fill:none;stroke:#d5d5d5;stroke-width:1px;"/><path d="M24.089,101.942l9.073,0" style="fill:none;stroke:#d5d5d5;stroke-width:1px;"/><path d="M24.089,83.757l9.073,0" style="fill:none;stroke:#d5d5d5;stroke-width:1px;"/><path d="M24.089,65.571l9.073,0" style="fill:none;stroke:#d5d5d5;stroke-width:1px;"/></g><g><path d="M156.984,171.148l0,9.073" style="fill:none;stroke:#d5d5d5;stroke-width:1px;"/><path d="M175.17,171.148l0,9.073" style="fill:none;stroke:#d5d5d5;stroke-width:1px;"/><path d="M193.356,171.148l0,9.073" style="fill:none;stroke:#d5d5d5;stroke-width:1px;"/><path d="M47.869,171.148l0,9.073" style="fill:none;stroke:#d5d5d5;stroke-width:1px;"/><path d="M66.055,171.148l0,9.073" style="fill:none;stroke:#d5d5d5;stroke-width:1px;"/><path d="M84.241,171.148l0,9.073" style="fill:none;stroke:#d5d5d5;stroke-width:1px;"/><path d="M102.427,171.148l0,9.073" style="fill:none;stroke:#d5d5d5;stroke-width:1px;"/><path d="M120.613,171.148l0,9.073" style="fill:none;stroke:#d5d5d5;stroke-width:1px;"/><path d="M138.798,171.148l0,9.073" style="fill:none;stroke:#d5d5d5;stroke-width:1px;"/></g></g><text x="75.958px" y="7.29px" style="font-family:'PTSans-Bold', 'PT Sans', sans-serif;font-weight:700;font-size:10.125px;fill:#293241;">Po<tspan x="87.389px 95.823px 98.83px 104.136px 107.973px 110.818px 115.486px 118.493px 123.049px 128.851px 131.858px 137.285px 143.087px 146.094px " y="7.29px 7.29px 7.29px 7.29px 7.29px 7.29px 7.29px 7.29px 7.29px 7.29px 7.29px 7.29px 7.29px 7.29px ">miar ciśnienia</tspan></text><text x="170.939px" y="197.285px" style="font-family:'PTSans-Regular', 'PT Sans', sans-serif;font-size:10.125px;fill:#a3a3a3;">c<tspan x="175.344px 179.869px " y="197.285px 197.285px ">za</tspan>s (dni)</text><text x="-0.78px" y="53.312px" style="font-family:'PTSans-Regular', 'PT Sans', sans-serif;font-size:10.125px;fill:#a3a3a3;">hP<tspan x="10.064px " y="53.312px ">a</tspan></text></g></svg>