<?xml version="1.0" encoding="UTF-8" standalone="no"?><!DOCTYPE svg PUBLIC "-//W3C//DTD SVG 1.1//EN" "http://www.w3.org/Graphics/SVG/1.1/DTD/svg11.dtd"><svg width="100%" height="100%" viewBox="0 0 299 157" version="1.1" xmlns="http://www.w3.org/2000/svg" xmlns:xlink="http://www.w3.org/1999/xlink" xml:space="preserve" xmlns:serif="http://www.serif.com/" style="fill-rule:evenodd;clip-rule:evenodd;stroke-linecap:round;stroke-linejoin:round;stroke-miterlimit:1.5;"><path d="M24.616,0.3l0,151.119" style="fill:none;stroke:#d5d5d5;stroke-width:0.6px;"/><path d="M5.752,132.308l292.345,0" style="fill:none;stroke:#d5d5d5;stroke-width:0.6px;"/><g><path d="M24.616,132.308c1.149,0 8.806,-21.6 22.764,-25.245c5.323,-1.39 9.618,12.332 16.123,10.844c6.937,-1.587 13.611,-35.185 21.475,-37.915c5.044,-1.752 11.099,20.027 16.365,18.648c7,-1.833 15.39,16.371 22.421,13.239c5.536,-2.466 10.554,-43.124 15.853,-47.568c5.255,-4.407 15.126,10.808 20.06,7.963c5.037,-2.904 9.438,-21.223 13.387,-26.145c9.149,-11.406 18.025,82.222 24.599,66.441" style="fill:none;stroke:#ee6c4d;stroke-width:0.9px;"/><g><path d="M20.079,113.124l9.074,0" style="fill:none;stroke:#d5d5d5;stroke-width:0.9px;"/><path d="M20.079,94.938l9.074,0" style="fill:none;stroke:#d5d5d5;stroke-width:0.9px;"/><path d="M20.079,76.752l9.074,0" style="fill:none;stroke:#d5d5d5;stroke-width:0.9px;"/><path d="M20.079,58.566l9.074,0" style="fill:none;stroke:#d5d5d5;stroke-width:0.9px;"/><path d="M20.079,40.381l9.074,0" style="fill:none;stroke:#d5d5d5;stroke-width:0.9px;"/><path d="M20.079,22.195l9.074,0" style="fill:none;stroke:#d5d5d5;stroke-width:0.9px;"/></g><g><path d="M152.975,127.772l0,9.073" style="fill:none;stroke:#d5d5d5;stroke-width:0.9px;"/><path d="M171.16,127.772l0,9.073" style="fill:none;stroke:#d5d5d5;stroke-width:0.9px;"/><path d="M189.346,127.772l0,9.073" style="fill:none;stroke:#d5d5d5;stroke-width:0.9px;"/><path d="M43.86,127.772l0,9.073" style="fill:none;stroke:#d5d5d5;stroke-width:0.9px;"/><path d="M62.046,127.772l0,9.073" style="fill:none;stroke:#d5d5d5;stroke-width:0.9px;"/><path d="M80.231,127.772l0,9.073" style="fill:none;stroke:#d5d5d5;stroke-width:0.9px;"/><path d="M98.417,127.772l0,9.073" style="fill:none;stroke:#d5d5d5;stroke-width:0.9px;"/><path d="M116.603,127.772l0,9.073" style="fill:none;stroke:#d5d5d5;stroke-width:0.9px;"/><path d="M134.789,127.772l0,9.073" style="fill:none;stroke:#d5d5d5;stroke-width:0.9px;"/></g></g><text x="165.543px" y="153.91px" style="font-family:'PTSans-Regular', 'PT Sans', sans-serif;font-size:10.125px;fill:#a3a3a3;">c<tspan x="169.947px 174.473px " y="153.91px 153.91px ">za</tspan>s (min)</text><text x="-0.861px" y="9.936px" style="font-family:'PTSans-Regular', 'PT Sans', sans-serif;font-size:10.125px;fill:#a3a3a3;">M</text></svg>