<?xml version="1.0" encoding="UTF-8" standalone="no"?><!DOCTYPE svg PUBLIC "-//W3C//DTD SVG 1.1//EN" "http://www.w3.org/Graphics/SVG/1.1/DTD/svg11.dtd"><svg width="100%" height="100%" viewBox="0 0 29 29" version="1.1" xmlns="http://www.w3.org/2000/svg" xmlns:xlink="http://www.w3.org/1999/xlink" xml:space="preserve" xmlns:serif="http://www.serif.com/" style="fill-rule:evenodd;clip-rule:evenodd;stroke-linecap:round;stroke-linejoin:round;stroke-miterlimit:1.5;"><g><g><g><path d="M5.134,19.786c0,0.015 0,0.03 0.001,0.045c0.024,2.396 1.977,4.334 4.378,4.334c2.417,0 4.379,-1.962 4.379,-4.379c0,-2.417 -1.962,-4.379 -4.379,-4.379l-8.683,0" style="fill:none;stroke:#ee6c4d;stroke-width:1px;"/><path d="M15.787,7.235c0.019,-2.401 1.974,-4.345 4.379,-4.345c2.417,0 4.379,1.962 4.379,4.379c0,2.417 -1.962,4.379 -4.379,4.379l-19.336,0" style="fill:none;stroke:#ee6c4d;stroke-width:1px;"/><path d="M15.085,15.408l7.734,-0.001c2.953,0 5.351,2.398 5.351,5.352c0,2.953 -2.398,5.351 -5.351,5.351c-2.711,0 -4.953,-2.02 -5.304,-4.635" style="fill:none;stroke:#ee6c4d;stroke-width:1px;"/></g></g></g></svg>