<?xml version="1.0" encoding="UTF-8" standalone="no"?><!DOCTYPE svg PUBLIC "-//W3C//DTD SVG 1.1//EN" "http://www.w3.org/Graphics/SVG/1.1/DTD/svg11.dtd"><svg width="100%" height="100%" viewBox="0 0 296 80" version="1.1" xmlns="http://www.w3.org/2000/svg" xmlns:xlink="http://www.w3.org/1999/xlink" xml:space="preserve" xmlns:serif="http://www.serif.com/" style="fill-rule:evenodd;clip-rule:evenodd;stroke-linecap:round;stroke-linejoin:round;stroke-miterlimit:1.5;"><g><path d="M294.61,41.777c0.05,-6.928 -5.511,-12.944 -12.409,-13.426l-258.856,-18.063c-6.898,-0.481 -12.539,4.753 -12.589,11.682l-0.179,25.107c-0.049,6.929 5.511,12.945 12.41,13.426l258.855,18.064c6.899,0.481 12.54,-4.753 12.589,-11.682l0.179,-25.108Z" style="fill:#a3a3a3;stroke:#a3a3a3;stroke-width:0.9px;"/><path d="M284.634,32.843c0.049,-6.929 -5.511,-12.945 -12.41,-13.426l-258.855,-18.063c-6.899,-0.482 -12.54,4.753 -12.589,11.681l-0.179,25.108c-0.05,6.929 5.511,12.945 12.409,13.426l258.856,18.063c6.898,0.482 12.539,-4.753 12.589,-11.681l0.179,-25.108Z" style="fill:#d5d5d5;stroke:#d5d5d5;stroke-width:0.9px;"/></g></svg>