<?xml version="1.0" encoding="UTF-8" standalone="no"?><!DOCTYPE svg PUBLIC "-//W3C//DTD SVG 1.1//EN" "http://www.w3.org/Graphics/SVG/1.1/DTD/svg11.dtd"><svg width="100%" height="100%" viewBox="0 0 187 173" version="1.1" xmlns="http://www.w3.org/2000/svg" xmlns:xlink="http://www.w3.org/1999/xlink" xml:space="preserve" xmlns:serif="http://www.serif.com/" style="fill-rule:evenodd;clip-rule:evenodd;stroke-linecap:round;stroke-linejoin:round;stroke-miterlimit:1.5;"><path d="M181.419,61.653c9.356,-14.404 4.231,-28.725 -11.436,-31.961l-56.775,-11.729c-15.669,-3.237 -35.984,5.83 -45.339,20.234l-58.119,89.477c-9.355,14.403 -4.231,28.725 11.437,31.961l56.775,11.729c15.668,3.236 35.984,-5.83 45.339,-20.234l58.118,-89.477Z" style="fill:#a3a3a3;stroke:#a3a3a3;stroke-width:0.45px;"/><path d="M176.57,44.57c9.355,-14.403 4.231,-28.725 -11.437,-31.961l-56.775,-11.729c-15.668,-3.236 -35.983,5.83 -45.339,20.234l-58.118,89.477c-9.356,14.404 -4.232,28.725 11.437,31.961l56.775,11.729c15.668,3.237 35.983,-5.83 45.339,-20.234l58.118,-89.477Z" style="fill:#d5d5d5;stroke:#d5d5d5;stroke-width:0.45px;"/></svg>