<?xml version="1.0" encoding="UTF-8" standalone="no"?><!DOCTYPE svg PUBLIC "-//W3C//DTD SVG 1.1//EN" "http://www.w3.org/Graphics/SVG/1.1/DTD/svg11.dtd"><svg width="100%" height="100%" viewBox="0 0 403 320" version="1.1" xmlns="http://www.w3.org/2000/svg" xmlns:xlink="http://www.w3.org/1999/xlink" xml:space="preserve" xmlns:serif="http://www.serif.com/" style="fill-rule:evenodd;clip-rule:evenodd;stroke-linecap:round;stroke-linejoin:round;stroke-miterlimit:1.5;"><g><path d="M129.474,248.325c-0.444,22.824 17.001,37.939 38.933,33.733l79.474,-15.24c21.932,-4.206 40.098,-26.15 40.542,-48.973l2.511,-129.1c0.444,-22.823 -17.001,-37.939 -38.933,-33.733l-79.474,15.24c-21.932,4.206 -40.098,26.15 -40.542,48.973l-2.511,129.1Z" style="fill:#a3a3a3;stroke:#a3a3a3;stroke-width:0.6px;"/><path d="M111.356,230.776c-0.444,22.823 17.001,37.938 38.933,33.732l79.474,-15.24c21.932,-4.205 40.098,-26.149 40.542,-48.973l2.511,-129.1c0.444,-22.823 -17.001,-37.938 -38.933,-33.733l-79.474,15.241c-21.932,4.205 -40.098,26.149 -40.542,48.972l-2.511,129.101Z" style="fill:#d5d5d5;stroke:#d5d5d5;stroke-width:0.6px;"/></g></svg>