<?xml version="1.0" encoding="UTF-8" standalone="no"?><!DOCTYPE svg PUBLIC "-//W3C//DTD SVG 1.1//EN" "http://www.w3.org/Graphics/SVG/1.1/DTD/svg11.dtd"><svg width="100%" height="100%" viewBox="0 0 136 185" version="1.1" xmlns="http://www.w3.org/2000/svg" xmlns:xlink="http://www.w3.org/1999/xlink" xml:space="preserve" xmlns:serif="http://www.serif.com/" style="fill-rule:evenodd;clip-rule:evenodd;stroke-linecap:round;stroke-linejoin:round;stroke-miterlimit:1.5;"><g><path d="M13.82,158.899c-0.333,17.118 12.75,28.454 29.199,25.3l59.606,-11.43c16.449,-3.155 30.073,-19.613 30.406,-36.73l1.884,-96.825c0.333,-17.117 -12.751,-28.454 -29.2,-25.3l-59.606,11.43c-16.449,3.155 -30.073,19.613 -30.406,36.73l-1.883,96.825Z" style="fill:#a3a3a3;stroke:#a3a3a3;stroke-width:0.45px;"/><path d="M0.231,145.737c-0.333,17.117 12.751,28.454 29.2,25.299l59.605,-11.43c16.449,-3.154 30.074,-19.612 30.407,-36.73l1.883,-96.825c0.333,-17.117 -12.751,-28.453 -29.2,-25.299l-59.605,11.43c-16.449,3.154 -30.074,19.612 -30.407,36.729l-1.883,96.826Z" style="fill:#d5d5d5;stroke:#d5d5d5;stroke-width:0.45px;"/></g></svg>